<svg width="40" height="45" viewBox="0 0 40 45" fill="none" xmlns="http://www.w3.org/2000/svg">
<path fill-rule="evenodd" clip-rule="evenodd" d="M0.789088 0.683582C0.288006 1.22213 0 2.05102 0 3.12812V41.4399C0 42.517 0.288006 43.3459 0.807821 43.8657L0.943628 43.9804L22.4106 22.5135V22.0311L0.924896 0.568848L0.789088 0.683582Z" fill="url(#paint0_linear_474_2314)"/>
<path fill-rule="evenodd" clip-rule="evenodd" d="M29.5521 29.6973L22.3918 22.5346V22.0335L29.5545 14.8708L29.709 14.9669L38.1806 19.781C40.6064 21.1484 40.6064 23.401 38.1806 24.7871L29.709 29.6013C29.7067 29.6013 29.5521 29.6973 29.5521 29.6973Z" fill="url(#paint1_linear_474_2314)"/>
<path fill-rule="evenodd" clip-rule="evenodd" d="M29.7067 29.6012L22.3919 22.2839L0.789093 43.8867C1.57818 44.7343 2.90582 44.8303 4.39033 44.0014L29.7067 29.6012Z" fill="url(#paint2_linear_474_2314)"/>
<path fill-rule="evenodd" clip-rule="evenodd" d="M29.7067 14.9692L4.39033 0.587603C2.90816 -0.260023 1.57818 -0.145289 0.789093 0.702337L22.3895 22.284L29.7067 14.9692Z" fill="url(#paint3_linear_474_2314)"/>
<path opacity="0.2" fill-rule="evenodd" clip-rule="evenodd" d="M29.5521 29.4465L4.40898 43.7321C3.00407 44.5399 1.75137 44.4837 0.943547 43.7508L0.807739 43.8866L0.943547 44.0014C1.75137 44.7319 3.00407 44.7904 4.40898 43.9826L29.7254 29.6011L29.5521 29.4465Z" fill="black"/>
<path opacity="0.12" fill-rule="evenodd" clip-rule="evenodd" d="M38.1784 24.5365L29.5335 29.4466L29.688 29.6012L38.1596 24.787C39.3725 24.0939 39.9696 23.1901 39.9696 22.2839C39.8923 23.1128 39.2765 23.9019 38.1784 24.5365Z" fill="black"/>
<path opacity="0.25" fill-rule="evenodd" clip-rule="evenodd" d="M4.39033 0.838066L38.1783 20.0338C39.2765 20.6496 39.8923 21.4574 39.9883 22.2863C39.9883 21.3825 39.3912 20.4763 38.1783 19.7832L4.39033 0.587525C1.96453 -0.798649 0 0.355715 0 3.12806V3.3786C0 0.606257 1.96453 -0.529375 4.39033 0.838066Z" fill="white"/>
<defs>
<linearGradient id="paint0_linear_474_2314" x1="20.4829" y1="2.7163" x2="-13.9034" y2="11.8786" gradientUnits="userSpaceOnUse">
<stop stop-color="#00A0FF"/>
<stop offset="0.007" stop-color="#00A1FF"/>
<stop offset="0.26" stop-color="#00BEFF"/>
<stop offset="0.512" stop-color="#00D2FF"/>
<stop offset="0.76" stop-color="#00DFFF"/>
<stop offset="1" stop-color="#00E3FF"/>
</linearGradient>
<linearGradient id="paint1_linear_474_2314" x1="41.3372" y1="22.2851" x2="-0.589634" y2="22.2851" gradientUnits="userSpaceOnUse">
<stop stop-color="#FFE000"/>
<stop offset="0.409" stop-color="#FFBD00"/>
<stop offset="0.775" stop-color="#FFA500"/>
<stop offset="1" stop-color="#FF9C00"/>
</linearGradient>
<linearGradient id="paint2_linear_474_2314" x1="25.7291" y1="26.2646" x2="-1.87638" y2="72.7264" gradientUnits="userSpaceOnUse">
<stop stop-color="#FF3A44"/>
<stop offset="1" stop-color="#C31162"/>
</linearGradient>
<linearGradient id="paint3_linear_474_2314" x1="-4.64886" y1="-12.0607" x2="7.6668" y2="8.68985" gradientUnits="userSpaceOnUse">
<stop stop-color="#32A071"/>
<stop offset="0.069" stop-color="#2DA771"/>
<stop offset="0.476" stop-color="#15CF74"/>
<stop offset="0.801" stop-color="#06E775"/>
<stop offset="1" stop-color="#00F076"/>
</linearGradient>
</defs>
</svg>
