<svg width="44" height="44" viewBox="0 0 44 44" fill="none" xmlns="http://www.w3.org/2000/svg">
<g clip-path="url(#clip0_474_2327)">
<path d="M35.2417 0.111084H8.75277C3.79166 0.111084 -0.225006 4.12775 -0.225006 9.08886V35.5833C-0.225006 40.5389 3.79166 44.5555 8.75277 44.5555H35.2472C40.2028 44.5555 44.225 40.5389 44.225 35.5778V9.08886C44.2194 4.12775 40.2028 0.111084 35.2417 0.111084Z" fill="url(#paint0_linear_474_2327)"/>
<path d="M21.8083 10.3221L22.7083 8.76658C23.2639 7.79436 24.5028 7.46658 25.475 8.02214C26.4472 8.57769 26.775 9.81658 26.2195 10.7888L17.5472 25.7999H23.8195C25.8528 25.7999 26.9917 28.1888 26.1083 29.8444H7.71946C6.59724 29.8444 5.69724 28.9444 5.69724 27.8221C5.69724 26.6999 6.59724 25.7999 7.71946 25.7999H12.875L19.475 14.361L17.4139 10.7833C16.8583 9.81103 17.1861 8.58325 18.1583 8.01658C19.1306 7.46103 20.3583 7.78881 20.925 8.76103L21.8083 10.3221ZM14.0083 31.9277L12.0639 35.2999C11.5083 36.2721 10.2695 36.5999 9.29724 36.0444C8.32501 35.4888 7.99724 34.2499 8.55279 33.2777L9.99724 30.7777C11.6306 30.2721 12.9583 30.661 14.0083 31.9277V31.9277ZM30.7528 25.811H36.0139C37.1361 25.811 38.0361 26.711 38.0361 27.8333C38.0361 28.9555 37.1361 29.8555 36.0139 29.8555H33.0917L35.0639 33.2777C35.6195 34.2499 35.2917 35.4777 34.3195 36.0444C33.3472 36.5999 32.1195 36.2721 31.5528 35.2999C28.2306 29.5388 25.7361 25.2277 24.0806 22.3555C22.3861 19.4333 23.5972 16.4999 24.7917 15.5055C26.1195 17.7833 28.1028 21.2221 30.7528 25.811V25.811Z" fill="white"/>
</g>
<defs>
<linearGradient id="paint0_linear_474_2327" x1="21.9972" y1="0.111084" x2="21.9972" y2="44.5555" gradientUnits="userSpaceOnUse">
<stop stop-color="#0ED4FC"/>
<stop offset="1" stop-color="#0C57EF"/>
</linearGradient>
<clipPath id="clip0_474_2327">
<rect width="44" height="44" fill="white"/>
</clipPath>
</defs>
</svg>
