<svg width="29" height="35" viewBox="0 0 29 35" fill="none" xmlns="http://www.w3.org/2000/svg">
<path d="M28.1214 16.6051C27.6572 16.1411 27.094 15.9092 26.4308 15.9092H25.6358V11.1362C25.6358 8.08704 24.5424 5.46891 22.3548 3.2814C20.1674 1.0938 17.5495 0 14.4999 0C11.4503 0 8.83193 1.0938 6.64468 3.28131C4.45708 5.46891 3.36363 8.08696 3.36363 11.1362V15.9092H2.56829C1.90563 15.9092 1.34206 16.1411 0.878005 16.6051C0.413948 17.0689 0.182007 17.6324 0.182007 18.2957V32.6137C0.182007 33.2764 0.414035 33.8401 0.878005 34.3043C1.34206 34.7679 1.90563 35 2.56829 35H26.4314C27.0946 35 27.6578 34.7681 28.122 34.3043C28.5856 33.8401 28.818 33.2764 28.818 32.6137V18.2954C28.8183 17.6327 28.5856 17.0692 28.1214 16.6051ZM20.8634 15.9092H8.13636V11.1362C8.13636 9.3797 8.75792 7.87983 10.0008 6.63715C11.2438 5.39429 12.7434 4.773 14.5001 4.773C16.257 4.773 17.7563 5.39421 18.9994 6.63715C20.2419 7.87974 20.8634 9.3797 20.8634 11.1362V15.9092Z" fill="white"/>
</svg>
