<svg width="216" height="206" viewBox="0 0 216 206" fill="none" xmlns="http://www.w3.org/2000/svg">
<path d="M91.832 11.7598C96.921 -3.90244 119.079 -3.90241 124.168 11.7599L137.86 53.9007C140.136 60.9051 146.663 65.6474 154.028 65.6474H198.338C214.806 65.6474 221.653 86.7209 208.33 96.4007L172.483 122.445C166.525 126.774 164.032 134.447 166.307 141.452L180 183.593C185.089 199.255 167.163 212.279 153.84 202.599L117.992 176.555C112.034 172.226 103.966 172.226 98.0076 176.555L62.1605 202.599C48.8373 212.279 30.9112 199.255 36.0002 183.593L49.6926 141.452C51.9684 134.447 49.4752 126.774 43.517 122.445L7.66977 96.4007C-5.65336 86.7209 1.19385 65.6474 17.6622 65.6474H61.9717C69.3365 65.6474 75.8638 60.9051 78.1396 53.9007L91.832 11.7598Z" fill="url(#paint0_linear_847_225)"/>
<defs>
<linearGradient id="paint0_linear_847_225" x1="108" y1="-38" x2="108" y2="262" gradientUnits="userSpaceOnUse">
<stop stop-color="#D54CE4"/>
<stop offset="1" stop-color="#1139FF"/>
</linearGradient>
</defs>
</svg>
